<svg xmlns="http://www.w3.org/2000/svg" viewBox="0 0 448 512"><!--! Font Awesome Pro 6.4.1 by @fontawesome - https://fontawesome.com License - https://fontawesome.com/license (Commercial License) Copyright 2023 Fonticons, Inc. --><path d="M338.7 234.3c2.3 1 4.5 2 6.7 3c31.2 15 54 37.6 65.9 65.5C428 341.7 429.6 405 379 455.5c-38.6 38.6-85.6 56-152.1 56.5h-.3c-74.9-.5-132.4-25.7-171.1-74.9C21 393.4 3.3 332.5 2.7 256.2l0-.2 0-.2C3.3 179.5 21 118.6 55.4 74.9C94.1 25.7 151.7 .5 226.6 0h.3c75 .5 133.2 25.6 173.1 74.6c19.6 24.2 34.1 53.3 43.3 87.1l-43.1 11.5c-7.6-27.5-19-51-34.3-69.8C334.8 65.2 288 45.6 226.7 45.2c-60.8 .5-106.8 20-136.7 58c-28 35.6-42.5 87-43 152.8c.5 65.8 15 117.2 43 152.8c29.9 38 75.9 57.5 136.7 58c54.8-.4 91.1-13.4 121.3-43.6c34.5-34.4 33.8-76.6 22.8-102.3c-6.5-15.1-18.2-27.7-34-37.2c-3.9 28.7-12.6 51.5-26.4 69.1c-18.2 23.2-44.2 35.8-77.5 37.7c-25.2 1.4-49.4-4.7-68.2-17.1c-22.2-14.7-35.2-37.1-36.6-63.3c-2.7-51.5 38.1-88.5 101.6-92.2c22.5-1.3 43.6-.3 63.1 3c-2.6-15.8-7.8-28.4-15.6-37.5c-10.7-12.5-27.3-18.9-49.3-19l-.6 0c-17.7 0-41.6 4.9-56.9 28.1l-36.7-25.2c20.5-31 53.7-48.1 93.7-48.1l.9 0c66.8 .4 106.6 42.1 110.6 114.9zM172.3 307.7c1.4 26.8 30.3 39.3 58.2 37.7c27.3-1.5 58.2-12.2 63.5-78.1c-14.1-3.1-29.7-4.7-46.3-4.7c-5.1 0-10.2 .1-15.4 .4c-45.8 2.6-61 24.8-59.9 44.6z"/></svg>